<svg id="Layer_1" xmlns="http://www.w3.org/2000/svg" width="40" height="40"><style>.st0{fill:#fff}.st1{fill:#ffda36}</style><g id="g6_1_" transform="translate(-1.132 -1.36) scale(1.18012)"><path id="path4_1_" d="M16.8 8.5c0 1.8-.2 3.7-.3 5.5-.1.8 0 1.7-.3 2.4-.4.8-1.4 1.3-2.1 1.8-2.6 1.8-5.6 2.9-8.2 4.6-.9.6-1.7 1.2-2.5-.1-.9-1.5-1.2-3.7-1.1-5.4.1-1.5.3-3.7 1.2-5.1.7-1.1 1.4-2.5 2.1-3.7C6 8 6.3 7.2 7 6.8c.7-.5 1.4-1.2 2.2-1.6.6-.3 1.3-.5 1.9-.8.4-.2 2.8-1 3.1-1.1.9-.3 1.9-.2 2.3.7.2.5.1 4.3.3 4.5z"/></g><path id="path8_1_" class="st0" d="M17.5 7.1c0-1.1.5-3.6-1-3.8-.6-.1-1.3.3-1.8.5-.7.3-1.5.6-2.3.9-2 .8-3.8 1.7-5.3 3.3-1.3 1.4-2.3 2.9-3.1 4.6-.8 1.8-1.4 3.5-1.6 5.5-.1 1.3-.1 2.5.2 3.8.2.7.4 2.5 1.1 3 .5.4.9-.1 1.3-.4.6-.6 1.3-.6 2.1-.9 1.6-.7 3.1-1.8 4.6-2.6 1.4-.8 2.8-1.5 4.2-2.4 1.4-.9 1.3-1.8 1.4-3.3.2-2.8.2-5.5.2-8.2z"/><path id="path10_1_" class="st1" d="M5.4 22.4c.4-.4 1.1-.7 1.6-1 .9-.6 1.9-1 2.8-1.5 1.1-.6 2.2-1.2 3.2-1.8.7-.4 2.1-.9 2.4-1.7.1-.4 0-1 0-1.5 0-.6.2-1.2.3-1.9.1-1.2.2-2.5.2-3.7 0-1.3 0-2.6-.1-3.9-.4 0-.7.3-1 .3-.4.1-3.2 1-4.1 1.5-2 .9-3.4 2.6-4.4 4.5-.8 1.5-1.6 3.2-1.8 4.9-.2 1.4-.5 2.7-.2 4.1.1.4.3 1.7.7 1.9.2.2.2 0 .4-.2z"/><g id="g14_1_" transform="translate(-1.132 -1.36) scale(1.18012)"><path id="path12_1_" d="M32.9 15.7c0 1.9-.5 3.9-.9 5.7-.2.9-.7 3.1-2 2.8-1.4-.3-2.8-2-4-2.8-1.8-1.1-3.6-2.2-5.3-3.2-1-.6-1.9-.8-2.1-2.2-.1-.6 0-1.3 0-1.9 0-.7-.1-7.1-.1-7.5 0-.8-.2-1.6-.3-2.4-.1-1 .3-1.4 1.2-1.6.6-.1 4.1.4 4.3.5C25 3.3 27 4.4 27.9 5c.7.7 2.6 3.4 3.1 4 1.5 1.9 1.9 4.3 1.9 6.7z"/></g><path id="path16_1_" class="st0" d="M36 11.8c-.6-1.7-2.2-3.5-3.3-4.8-.3-.3-.7-.5-1-.9-.3-.3-.4-.7-.8-1-.5-.4-1.2-.6-1.8-.9-1-.6-2.1-.9-3.3-1-1.2-.1-2.5-.8-3.7-.4-1.6.5-.8 1.8-.7 3.2 0 .8.1 1.5.1 2.2.2 2.8-.2 5.7 0 8.6.1 1.2.3 1.2 1.2 1.6 1 .5 2 1.4 3 2 2 1.2 3.9 2.4 5.7 3.8.8.6 2.5 2.4 3.2 1.1.6-1 .9-2.2 1.2-3.3.9-3.2 1-6.8.2-10.2z"/><path id="path18_1_" class="st1" d="M23.3 16.8c.3.3.9.6 1.3.8 1 .7 2.1 1.3 3.2 1.9 1.1.6 2.1 1.2 3.1 1.9.4.3 2 1.7 2.4 1.5.4-.2.5-1.5.6-1.9.2-.9.6-1.7.7-2.6.3-2.2.4-5.1-.8-7.1-.9-1.5-2.2-2.6-3.4-3.8-.9-.9-2-1.8-3.3-2.1-.9-.2-1.9-.3-2.8-.5-.6-.1-1.3-.1-1.4.5-.1.4.2 1.1.2 1.4v.8c0 .7.1 1.3.1 1.9v5.9c.1.5-.1 1.1.1 1.4z"/><g id="g22_1_" transform="translate(-1.132 -1.36) scale(1.18012)"><path id="path20_1_" d="M31.2 29.1c-.3.3-.8.8-1 1.2-.5.7-.8 1-1.5 1.5-1.2.8-2.4 1.4-3.8 1.9-.7.2-1.4.5-2.2.6-.4 0-1 .2-1.4.1-1.1-.3-1.3-1.8-1.4-2.7-.2-1.7-.3-3.4-.3-5.1 0-.9-.1-1.8-.1-2.6 0-.7-.3-2.1.1-2.7.9-1.1 3.1.9 4 1.3 1.1.6 2.1 1.2 3.1 1.9.7.5 1.5 1 2.2 1.5.3.2.6.7 1 .8.4.2.9.2 1.2.6.3.4.3 1.3.1 1.7z"/></g><path id="path24_1_" class="st0" d="M34.2 32.7c.6-.6.9-1.1.1-1.5-.4-.2-.7-.3-1.1-.6-1.3-1.1-2.8-2.1-4.3-3.1-1.4-.9-2.8-1.7-4.3-2.6-.5-.3-1.1-.9-1.6-.5-.6.4-.2 2-.2 2.7.1 2.5 0 5 .3 7.4.1.8 0 2.1.4 2.8.4.7.9.5 1.6.4 1.7-.3 3.3-1 4.8-1.8.6-.2 4.3-2.9 4.3-3.2z"/><path id="path26_1_" class="st1" d="M28.6 29.3c-.7-.5-3.6-2.7-4.3-3.1 0 2.2 0 4.4.2 6.6.1 1 .2 2.1.4 3 .2.7.5.4 1.1.2 1.7-.6 3.4-1.2 4.9-2.3.4-.3 1.4-1.2 1.6-1.7-.2.1-2.8-1.8-3.9-2.7z"/><g id="g30_1_" transform="translate(-1.132 -1.36) scale(1.18012)"><path id="path28_1_" d="M17.8 31.8c0 1.6-2.6.9-3.4.7-1.6-.4-3.1-1.3-4.5-2.2-1.4-.9-3.3-2.3-4.1-3.9-.9-1.7 1.6-2.6 2.8-3.2 1.8-1 3.6-1.9 5.4-3 .6-.3 1.9-1.3 2.5-1.3.8.1.9 1.1.9 1.8 0 1.3-.1 2.5-.1 3.8v3.2c0 .5.1 1 .1 1.5 0 .9.4 1.7.4 2.6z"/></g><path id="path32_1_" class="st0" d="M18.6 33.7c-.4-2.3-.3-4.6-.3-6.9 0-1 .7-4.6-.5-4.7-.7-.1-2.1 1-2.7 1.4-.9.5-1.8 1.1-2.8 1.7-1.1.6-2.1 1.1-3.2 1.7-.6.3-2.4 1-2.7 1.6-.5 1 3 3.5 3.8 4.2 1.6 1.3 3.4 2.4 5.5 2.9.6.1 2.1.5 2.7.2.5-.3.2-1.4.2-2.1z"/><path id="path34_1_" class="st1" d="M16.9 24.2c-3.1 1.5-8 4.3-8.1 5-.1.7 4.8 5 8.3 5 0-1.4-.3-2.8-.3-4.1 0-.5 0-4.8.1-5.9z"/></svg>