<svg xmlns="http://www.w3.org/2000/svg" width="235" height="37" viewBox="0 0 235 37">
  <defs>
    <style>
      .cls-1 {
        fill: #ffd000;
        stroke: #000;
        stroke-linejoin: round;
        stroke-width: 1px;
        fill-rule: evenodd;
      }
    </style>
  </defs>
  <path id="krutoe_cafe" data-name="krutoe cafe" class="cls-1" d="M219.349,25.413a4.649,4.649,0,0,0,1.315,2.881,5.265,5.265,0,0,0,3.837,1.337,7.346,7.346,0,0,0,2.512-.449,7.633,7.633,0,0,0,2.259-1.279l4.125,3.664a13.757,13.757,0,0,1-4.194,2.639,12.542,12.542,0,0,1-4.7.933,12.84,12.84,0,0,1-5.911-1.256,8.585,8.585,0,0,1-3.745-3.664,12.112,12.112,0,0,1-1.291-5.8v-2.7a13.646,13.646,0,0,1,1.233-6.061,8.586,8.586,0,0,1,3.6-3.826,11.571,11.571,0,0,1,5.7-1.314,9.115,9.115,0,0,1,5.369,1.567,9.651,9.651,0,0,1,3.4,4.552,19.846,19.846,0,0,1,1.164,7.2v1.567H219.349Zm8.84-4.817a5.575,5.575,0,0,0-1.3-3.2,3.641,3.641,0,0,0-2.8-1.129,4.575,4.575,0,0,0-3.538,1.36A5.284,5.284,0,0,0,219.3,21.15h8.955Zm-21.2,14.2h-6.315V16.264h-2.535V10.871h2.535V7.621a6.787,6.787,0,0,1,1.464-4.759,5.861,5.861,0,0,1,4.5-1.579h4.379V6.907h-2.673a1.149,1.149,0,0,0-1.014.507,2.283,2.283,0,0,0-.346,1.314v2.143h4.033v5.393h-4.033v18.53Zm-18.968-2.274a3.559,3.559,0,0,1-.7.822,6.873,6.873,0,0,1-2.628,1.348,12.1,12.1,0,0,1-3.33.45q-3.849,0-5.75-1.832t-1.9-5.566a6.532,6.532,0,0,1,2.132-5.324q2.131-1.774,6.4-1.775h5.784V19.629a3.106,3.106,0,0,0-1.106-2.558,4.85,4.85,0,0,0-3.134-.9,8.345,8.345,0,0,0-2.651.438,7.822,7.822,0,0,0-2.327,1.221l-3.918-3.849a9.419,9.419,0,0,1,3.779-2.547,14.322,14.322,0,0,1,5.209-.91,12.409,12.409,0,0,1,5.347,1.049,7.532,7.532,0,0,1,3.376,3.042,9.373,9.373,0,0,1,1.164,4.805V34.794h-5.739V32.519Zm0-7.06h-5.761a3.418,3.418,0,0,0-2.144.565,2.056,2.056,0,0,0-.714,1.717,1.911,1.911,0,0,0,.9,1.74,5.2,5.2,0,0,0,2.719.565,9.344,9.344,0,0,0,3.768-.576,1.89,1.89,0,0,0,1.233-1.8V25.46Zm-29.73,2.293a5.045,5.045,0,0,0,3.711,1.3,6.476,6.476,0,0,0,2.489-.484,5.817,5.817,0,0,0,2.028-1.383l4.079,4.195a8.658,8.658,0,0,1-2.328,2.04,11.251,11.251,0,0,1-3.111,1.279,14.983,14.983,0,0,1-3.687.438,12.221,12.221,0,0,1-5.843-1.3,8.646,8.646,0,0,1-3.7-3.791,13.072,13.072,0,0,1-1.267-5.992V21.5a12.8,12.8,0,0,1,1.267-5.934,8.624,8.624,0,0,1,3.7-3.745,12.314,12.314,0,0,1,5.843-1.291,14.755,14.755,0,0,1,3.7.449,11.277,11.277,0,0,1,3.122,1.3,8.333,8.333,0,0,1,2.305,2.074l-4.079,3.964a6.337,6.337,0,0,0-2.051-1.256A6.849,6.849,0,0,0,162,16.61a5.1,5.1,0,0,0-3.711,1.279,4.8,4.8,0,0,0-1.313,3.607v2.558A4.976,4.976,0,0,0,158.288,27.753Zm-38.5.542a5.265,5.265,0,0,0,3.837,1.337,7.35,7.35,0,0,0,2.512-.449A7.645,7.645,0,0,0,128.4,27.9l4.125,3.664a13.774,13.774,0,0,1-4.195,2.639,12.54,12.54,0,0,1-4.7.933,12.844,12.844,0,0,1-5.912-1.256,8.59,8.59,0,0,1-3.745-3.664,12.123,12.123,0,0,1-1.29-5.8v-2.7a13.646,13.646,0,0,1,1.233-6.061,8.589,8.589,0,0,1,3.595-3.826,11.574,11.574,0,0,1,5.7-1.314,9.118,9.118,0,0,1,5.37,1.567,9.656,9.656,0,0,1,3.4,4.552,19.846,19.846,0,0,1,1.164,7.2v1.567h-14.67A4.638,4.638,0,0,0,119.789,28.294Zm7.594-7.145-0.07-.553a5.575,5.575,0,0,0-1.3-3.2,3.638,3.638,0,0,0-2.8-1.129,4.578,4.578,0,0,0-3.538,1.36,5.289,5.289,0,0,0-1.245,3.526h8.955ZM102.872,33.918a13.4,13.4,0,0,1-11.177,0,8.18,8.18,0,0,1-3.526-3.561,12.132,12.132,0,0,1-1.21-5.635V20.827a11.883,11.883,0,0,1,1.21-5.566,8.143,8.143,0,0,1,3.526-3.526,13.512,13.512,0,0,1,11.177,0,8.143,8.143,0,0,1,3.527,3.526,11.892,11.892,0,0,1,1.209,5.566v3.964A11.945,11.945,0,0,1,106.4,30.38,8.209,8.209,0,0,1,102.872,33.918Zm-1.578-13.091a4.318,4.318,0,0,0-1.06-3.111,3.926,3.926,0,0,0-2.974-1.106,3.854,3.854,0,0,0-2.938,1.106,4.343,4.343,0,0,0-1.049,3.111v3.964a4.452,4.452,0,0,0,1.037,3.146,3.824,3.824,0,0,0,2.95,1.118,3.9,3.9,0,0,0,2.974-1.118,4.394,4.394,0,0,0,1.06-3.146V20.827ZM74.341,33.307a6.8,6.8,0,0,1-1.463-4.736V16.264H70.411V10.871h2.466V3.911h6.315v6.96h2.927v5.393H79.192V27a2.254,2.254,0,0,0,.346,1.348,1.177,1.177,0,0,0,1.014.473h1.567v6.084h-3.18A5.943,5.943,0,0,1,74.341,33.307Zm-14.6-2.021a7.386,7.386,0,0,1-1.9,2.517,5.617,5.617,0,0,1-3.791,1.337A7.36,7.36,0,0,1,48.1,32.662Q46,30.185,46,25.644V10.871h6.315V25.413A3.58,3.58,0,0,0,53.3,28.1a3.776,3.776,0,0,0,2.754.956,3.643,3.643,0,0,0,2.731-.98,3.844,3.844,0,0,0,.956-2.8v-14.4h6.292V34.794H59.74V31.286ZM38.192,16.84a4.74,4.74,0,0,0-1.544-.23,3.675,3.675,0,0,0-2.961,1.233,5.12,5.12,0,0,0-1.049,3.422V34.794H25.862V10.871h6.776v3.245a8.015,8.015,0,0,1,2.086-2.4,5.643,5.643,0,0,1,3.469-1.187A7.4,7.4,0,0,1,40.9,11a5.921,5.921,0,0,1,2.109,1.394l-3.687,5.14A2.917,2.917,0,0,0,38.192,16.84ZM15.56,34.794L10.827,25.11l-3.61,4.731v4.952H0.9V1.284H7.217V21.558l7.79-10.687H21.69l-6.746,8.842,7.922,15.08H15.56Z"/>
</svg>
